<svg xmlns="http://www.w3.org/2000/svg"
     width="24"
     height="24"
     viewBox="0 0 24 24"
     fill="none">
  <path d="M23.8973 12.0643C23.8973 12.186 23.8956 12.3076 23.8921 12.4293H18.0805V12.1634H12.4869C12.4869 12.1078 12.4886 12.0521 12.4886 11.9983C12.4886 11.9444 12.4886 11.887 12.4869 11.8331H18.0805V11.5689H23.8869C23.8938 11.7341 23.8973 11.8992 23.8973 12.0643ZM12.3882 10.8667L17.8624 10.1906L17.8953 10.4548L23.6758 9.74044C23.6204 9.45539 23.5546 9.17381 23.4802 8.89745L17.7897 9.60139L17.8226 9.86559L12.3225 10.5452C12.3467 10.653 12.3692 10.7607 12.3882 10.8702V10.8667ZM12.1027 9.80301L17.3345 8.49073L17.3986 8.74797L22.9506 7.35574C22.8364 7.08633 22.7135 6.82039 22.582 6.56141L17.1926 7.91367L17.2566 8.17092L11.9815 9.49537C12.0248 9.59792 12.0646 9.70046 12.1027 9.80475V9.80301ZM11.6388 8.80707L16.5298 6.95249L16.6232 7.20104L21.798 5.2387C21.6301 4.99189 21.4536 4.75203 21.2666 4.51912L16.3204 6.39455L16.4138 6.64311L11.464 8.52028C11.5246 8.61414 11.5835 8.70973 11.6388 8.80707ZM10.9968 7.88586L15.3166 5.62457L15.4377 5.86095L20.2144 3.35979C19.9946 3.146 19.7661 2.94264 19.5308 2.74623L15.0414 5.09618L15.1625 5.33256L10.77 7.6321C10.8462 7.71553 10.9223 7.79896 10.995 7.88586H10.9968ZM9.95489 6.89166L13.8662 4.39397L14.0082 4.61819L18.3245 1.86153C18.0528 1.68772 17.7759 1.52607 17.4903 1.37486L13.5495 3.89166L13.6914 4.11588L9.6676 6.68482C9.76625 6.75087 9.86144 6.82039 9.95662 6.89166H9.95489ZM9.03071 6.31112L12.3086 3.61182L12.4765 3.81692L16.168 0.775203C15.8548 0.655272 15.5329 0.547509 15.2075 0.45365L11.9331 3.15122L12.1009 3.35632L8.70361 6.15469C8.81437 6.20336 8.92341 6.2555 9.03071 6.31112ZM7.80712 5.83314L10.3962 3.24508L10.5814 3.43279L13.8714 0.149479C13.5149 0.0903824 13.1532 0.0469293 12.7863 0.0191194L9.98085 2.82271L10.166 3.01043L7.43156 5.74276C7.5579 5.76883 7.68251 5.79838 7.80712 5.83314ZM6.37584 5.61588L8.44055 3.10255L8.64477 3.27115L11.3325 0C10.9241 0.0191194 10.5208 0.0590962 10.1245 0.118192L7.98365 2.72364L8.18787 2.89224L5.95182 5.61414C6.01413 5.6124 6.07816 5.61066 6.14047 5.61066C6.22008 5.61066 6.29796 5.61066 6.37584 5.61414V5.61588ZM5.1384 5.69061L6.7289 3.219L6.95043 3.36327L8.87322 0.373696C8.43362 0.488413 8.00441 0.627462 7.58559 0.789108L6.23219 2.89397L6.45372 3.03824L4.69188 5.77752C4.83899 5.74276 4.98783 5.71321 5.1384 5.68888V5.69061ZM3.76424 6.07474L4.90822 3.92121L5.14013 4.04635L6.65448 1.19757C6.16816 1.43569 5.70087 1.7051 5.25436 2.00406L4.38382 3.64137L4.61746 3.76651L3.27099 6.3007C3.43022 6.219 3.59463 6.14426 3.76251 6.07648L3.76424 6.07474ZM2.77775 6.58053L3.26407 5.19351L3.51329 5.28216L4.45824 2.58807C3.97884 2.97045 3.52886 3.3876 3.11177 3.83778L2.70506 4.9971L2.95428 5.08575L2.31739 6.90035C2.46622 6.78737 2.61853 6.68134 2.77602 6.58227L2.77775 6.58053ZM1.56454 7.573L1.77914 6.56489L2.03702 6.62051L2.46969 4.59038C2.01452 5.17092 1.61127 5.7949 1.26686 6.45365L1.45897 6.49536L1.06437 8.16396C1.2184 7.95713 1.38628 7.75898 1.56454 7.573ZM0.673236 8.75145V7.41657C0.351329 8.26999 0.122879 9.33198 0 10.3731C0.15057 9.79606 0.37902 9.25203 0.673236 8.75145ZM0.00865342 13.6582C0.134993 14.5464 0.356521 15.4032 0.664583 16.2184V15.2329C0.38075 14.7462 0.157492 14.2178 0.00865342 13.6582ZM1.10591 15.8917L1.45031 17.5046L1.25821 17.5464C1.60261 18.2068 2.00586 18.8291 2.46103 19.4096L2.02836 17.3795L1.77049 17.4351L1.55242 16.4148C1.39493 16.248 1.24436 16.0742 1.10591 15.8899V15.8917ZM2.30527 17.091L2.94562 18.916L2.69641 19.0046L3.10312 20.164C3.52021 20.6141 3.97019 21.0313 4.44959 21.4137L3.50464 18.7196L3.25542 18.8082L2.76736 17.4143C2.60987 17.3134 2.45584 17.2074 2.307 17.0944L2.30527 17.091ZM3.26061 17.6941L4.61054 20.2352L4.3769 20.3604L5.24743 21.9977C5.69395 22.2966 6.16123 22.566 6.64756 22.8042L5.13321 19.9554L4.89957 20.0805L3.75212 17.9218C3.58425 17.854 3.41983 17.7775 3.25888 17.6958L3.26061 17.6941ZM4.6815 18.219L6.44507 20.9618L6.22354 21.106L7.57693 23.2109C7.99576 23.3725 8.42497 23.5116 8.86456 23.6263L6.94177 20.6367L6.72025 20.781L5.12802 18.3059C4.97745 18.2816 4.82688 18.252 4.67977 18.2173L4.6815 18.219ZM5.94144 18.3859L8.17748 21.1078L7.97326 21.2764L10.1141 23.8818C10.5104 23.9409 10.9137 23.9809 11.3221 24L8.63438 20.7271L8.43016 20.8957L6.36546 18.3824C6.29104 18.3859 6.21489 18.3859 6.13874 18.3859C6.07297 18.3859 6.00547 18.3859 5.93971 18.3824L5.94144 18.3859ZM7.42463 18.2572L10.1574 20.9878L9.9722 21.1756L12.7776 23.9791C13.1445 23.9513 13.5063 23.9079 13.8628 23.8488L10.5745 20.5637L10.3876 20.7532L7.80019 18.1669C7.67731 18.1999 7.55097 18.2312 7.42463 18.2572ZM8.69842 17.8488L12.0923 20.6454L11.9244 20.8505L15.1989 23.5481C15.5242 23.4542 15.8461 23.3465 16.1594 23.2265L12.4661 20.1848L12.2982 20.3899L9.02379 17.6924C8.91648 17.748 8.80745 17.8001 8.69669 17.8488H8.69842ZM9.66068 17.3169L13.6793 19.8841L13.5374 20.1083L17.4782 22.6251C17.7637 22.4739 18.0424 22.3105 18.3124 22.1385L13.996 19.3818L13.8541 19.606L9.94797 17.1118C9.85278 17.1831 9.7576 17.2526 9.65895 17.3187L9.66068 17.3169ZM10.7683 16.3714L15.1556 18.6674L15.0345 18.9038L19.5238 21.2538C19.7592 21.0574 19.9877 20.854 20.2075 20.6402L15.4308 18.139L15.3096 18.3754L10.995 16.1176C10.9223 16.2045 10.8479 16.2897 10.77 16.3714H10.7683ZM11.4623 15.4815L16.4052 17.3569L16.3117 17.6054L21.258 19.4809C21.4432 19.248 21.6197 19.0081 21.7893 18.7613L16.6146 16.799L16.5211 17.0475L11.6371 15.1947C11.5817 15.292 11.5229 15.3876 11.4623 15.4815ZM11.9798 14.5081L17.2463 15.8291L17.1822 16.0863L22.5716 17.4386C22.7048 17.1796 22.8277 16.9137 22.9419 16.6443L17.3899 15.252L17.3259 15.5093L12.1009 14.1987C12.0629 14.303 12.0213 14.4056 11.9798 14.5081ZM12.3225 13.4583L17.8139 14.1362L17.781 14.4003L23.4715 15.1043C23.546 14.8262 23.6117 14.5446 23.6671 14.2613L17.8866 13.5469L17.8537 13.8111L12.3882 13.135C12.3692 13.2445 12.3467 13.3523 12.3225 13.46V13.4583Z"
        fill="currentColor"/>
</svg>
